{"title":"scooby doo complete season 1,2,3 by salman sk","uid":6648458,"size":2130421505,"categoryP":"video","categoryS":"tv_shows","magnet":"?xt=urn:btih:3855244ef4b37a03e0a68ddbc0464e8f72e30a51&amp;dn=scooby+doo+complete+season+1%2C2%2C3+by+salman+sk&amp;tr=udp%3A%2F%2Ftracker.openbittorrent.com%3A80&amp;tr=udp%3A%2F%2Fopen.demonii.com%3A1337&amp;tr=udp%3A%2F%2Ftracker.coppersurfer.tk%3A6969&amp;tr=udp%3A%2F%2Fexodus.desync.com%3A6969","seeders":5,"leechers":1,"uploader":"salmansk","files":42,"time":1315040090,"description":"who are concious about quality....check out screen shots......at...\n\n\n\n\n\n\n\n\n\n\n\nGeneral\nComplete name                    : for Scooby.mp4\nFormat                           : MPEG-4\nFormat profile                   : Base Media\nCodec ID                         : isom\nFile size                        : 52.6 MiB\nDuration                         : 24mn 17s\nOverall bit rate                 : 303 Kbps\n\nVideo\nID                               : 1\nFormat                           : AVC\nFormat/Info                      : Advanced Video Codec\nFormat profile                   : &lt;a class=&quot;__cf_email__&quot; href=&quot;/cdn-cgi/l/email-protection&quot; data-cfemail=&quot;743c1d131c3438415a45&quot;&gt;[email&amp;#160;protected]&lt;/a&gt;&lt;script data-cfhash='f9e31' type=&quot;text/javascript&quot;&gt;\n/* &lt;![CDATA[ */!function(){try{var t=&quot;currentScript&quot;in document?document.currentScript:function(){for(var t=document.getElementsByTagName(&quot;script&quot;),e=t.length;e--;)if(t[e].getAttribute(&quot;data-cfhash&quot;))return t[e]}();if(t&amp;&amp;t.previousSibling){var e,r,n,i,c=t.previousSibling,a=c.getAttribute(&quot;data-cfemail&quot;);if(a){for(e=&quot;&quot;,r=parseInt(a.substr(0,2),16),n=2;a.length-n;n+=2)i=parseInt(a.substr(n,2),16)^r,e+=String.fromCharCode(i);e=document.createTextNode(e),c.parentNode.replaceChild(e,c)}t.parentNode.removeChild(t);}}catch(u){}}()/* ]]&gt; */&lt;/script&gt;\nFormat settings, CABAC           : Yes\nFormat settings, ReFrames        : 4 frames\nCodec ID                         : avc1\nCodec ID/Info                    : Advanced Video Coding\nDuration                         : 24mn 16s\nBit rate mode                    : Variable\nBit rate                         : 268 Kbps\nMaximum bit rate                 : 870 Kbps\nWidth                            : 512 pixels\nHeight                           : 384 pixels\nDisplay aspect ratio             : 4:3\nFrame rate mode                  : Constant\nFrame rate                       : 23.976 fps\nColor space                      : YUV\nChroma subsampling               : 4:2:0\nBit depth                        : 8 bits\nScan type                        : Progressive\n\nBits/(Pixel*Frame)               : 0.057\nStream size                      : 46.6 MiB (88%)\nWriting library                  : x264 core 54 svn-611M\n\nAudio\nID                               : 2\nFormat                           : AAC\nFormat/Info                      : Advanced Audio Codec\nFormat profile                   : HE-AACv2 / HE-AAC / LC\nCodec ID                         : 40\nDuration                         : 24mn 17s\nBit rate mode                    : Variable\nBit rate                         : 32.3 Kbps\nMaximum bit rate                 : 39.1 Kbps\nChannel(s)                       : 2 channels / 1 channel / 1 channel\nChannel positions                : Front: L R / Front: C / Front: C\nSampling rate                    : 48.0 KHz / 48.0 KHz / 24.0 KHz\nCompression mode                 : Lossy\nStream size                      : 5.62 MiB (11%)","torrent":{"xt":"urn:btih:3855244ef4b37a03e0a68ddbc0464e8f72e30a51","amp;dn":"scooby+doo+complete+season+1%2C2%2C3+by+salman+sk","amp;tr":["udp%3A%2F%2Ftracker.openbittorrent.com%3A80","udp%3A%2F%2Fopen.demonii.com%3A1337","udp%3A%2F%2Ftracker.coppersurfer.tk%3A6969","udp%3A%2F%2Fexodus.desync.com%3A6969"],"infoHash":"3855244ef4b37a03e0a68ddbc0464e8f72e30a51","infoHashBuffer":{"type":"Buffer","data":[56,85,36,78,244,179,122,3,224,166,141,219,192,70,78,143,114,227,10,81]},"announce":[],"urlList":[]}}